<svg width="34" height="33" viewBox="0 0 34 33" fill="none" xmlns="http://www.w3.org/2000/svg">
<path d="M12.4423 32.0893C11.2923 32.0893 10.273 31.7653 9.3845 31.1173C8.49625 30.4693 7.84538 29.6107 7.43188 28.5414C7.07988 29.0567 6.61688 29.4533 6.04288 29.7313C5.46887 30.009 4.87125 30.1479 4.25 30.1479C3.0905 30.1479 2.11313 29.7469 1.31788 28.9449C0.522625 28.1429 0.125 27.1689 0.125 26.0229C0.125 25.0249 0.460625 24.1212 1.13188 23.3117C1.80288 22.5019 2.65188 22.0634 3.67887 21.9962C3.25188 21.5154 2.91825 20.9722 2.678 20.3664C2.4375 19.7607 2.31725 19.126 2.31725 18.4625C2.31725 17.5465 2.54712 16.6877 3.00688 15.8859C3.46637 15.0844 4.11062 14.4279 4.93962 13.9164C5.03612 14.2519 5.1665 14.6108 5.33075 14.993C5.495 15.3753 5.67613 15.7107 5.87413 15.9992C5.46638 16.3127 5.15287 16.6879 4.93363 17.1249C4.71438 17.5622 4.60475 18.0205 4.60475 18.5C4.60475 19.977 5.17975 20.9093 6.32975 21.2968C7.47975 21.6843 8.61538 21.9877 9.73663 22.2069L10.2616 23.1039C9.98662 23.9039 9.75625 24.5828 9.5705 25.1405C9.385 25.698 9.29225 26.2067 9.29225 26.6664C9.29225 27.5087 9.596 28.2457 10.2035 28.8774C10.8108 29.5092 11.5522 29.825 12.428 29.825C13.4357 29.825 14.2665 29.412 14.9203 28.586C15.574 27.76 16.1105 26.7842 16.5297 25.6584C16.949 24.5324 17.2721 23.3843 17.4991 22.214C17.7261 21.0438 17.9118 20.1173 18.056 19.4345L20.2595 20.0345C20.0442 21.0923 19.7838 22.3125 19.478 23.6953C19.1723 25.078 18.74 26.3919 18.1813 27.6369C17.6225 28.8822 16.8874 29.9355 15.9759 30.797C15.0644 31.6585 13.8865 32.0893 12.4423 32.0893ZM4.25 27.8983C4.77125 27.8983 5.21412 27.716 5.57862 27.3515C5.94287 26.987 6.125 26.5442 6.125 26.0229C6.125 25.5019 5.94287 25.0592 5.57862 24.6947C5.21412 24.3302 4.77125 24.1479 4.25 24.1479C3.729 24.1479 3.28625 24.3302 2.92175 24.6947C2.55725 25.0592 2.375 25.5019 2.375 26.0229C2.375 26.5442 2.55725 26.987 2.92175 27.3515C3.28625 27.716 3.729 27.8983 4.25 27.8983ZM14.1357 21.8432C13.053 20.8759 12.0669 19.9725 11.1774 19.133C10.2879 18.2938 9.52138 17.4747 8.87788 16.6757C8.23413 15.8767 7.73938 15.0775 7.39363 14.2783C7.04788 13.4793 6.875 12.649 6.875 11.7875C6.875 10.268 7.39513 8.98815 8.43538 7.9479C9.47563 6.90765 10.7555 6.38753 12.275 6.38753C12.4615 6.38753 12.6284 6.39865 12.7756 6.4209C12.9226 6.4429 13.0701 6.46828 13.2181 6.49703C13.1086 6.25678 13.0241 6.01315 12.9646 5.76615C12.9049 5.5194 12.875 5.26015 12.875 4.9884C12.875 3.84265 13.2759 2.86878 14.0776 2.06678C14.8794 1.26453 15.8529 0.863403 16.9981 0.863403C18.1436 0.863403 19.1178 1.26453 19.9205 2.06678C20.7235 2.86878 21.125 3.84265 21.125 4.9884C21.125 5.2634 21.0951 5.51965 21.0354 5.75715C20.9759 5.99465 20.8914 6.23365 20.7819 6.47415C20.9299 6.4454 21.0774 6.42378 21.2244 6.40928C21.3716 6.39478 21.5385 6.38753 21.725 6.38753C23.0423 6.38753 24.1754 6.7894 25.1244 7.59315C26.0734 8.39715 26.6767 9.4059 26.9345 10.6194C26.5917 10.5637 26.2061 10.5358 25.7776 10.5358C25.3489 10.5358 24.9548 10.5559 24.5952 10.5962C24.3722 10.0212 24.0077 9.55103 23.5018 9.18578C22.996 8.82028 22.4059 8.63753 21.7314 8.63753C20.8234 8.63753 20.1088 8.88653 19.5875 9.38453C19.0662 9.88278 18.371 10.6338 17.5018 11.6375H16.4608C15.5665 10.5933 14.8588 9.83228 14.3375 9.35453C13.8163 8.87653 13.1288 8.63753 12.275 8.63753C11.367 8.63753 10.615 8.93553 10.019 9.53153C9.423 10.1275 9.125 10.8795 9.125 11.7875C9.125 12.3655 9.28025 12.9624 9.59075 13.5782C9.9015 14.1942 10.3426 14.8459 10.9141 15.5334C11.4859 16.2209 12.1791 16.9522 12.9939 17.7272C13.8089 18.5022 14.724 19.3397 15.7393 20.2397L14.1357 21.8432ZM17 6.8634C17.5212 6.8634 17.964 6.68128 18.3283 6.31703C18.6927 5.95253 18.875 5.50965 18.875 4.9884C18.875 4.4674 18.6927 4.02465 18.3283 3.66015C17.964 3.29565 17.5212 3.1134 17 3.1134C16.4788 3.1134 16.036 3.29565 15.6718 3.66015C15.3073 4.02465 15.125 4.4674 15.125 4.9884C15.125 5.50965 15.3073 5.95253 15.6718 6.31703C16.036 6.68128 16.4788 6.8634 17 6.8634ZM21.4914 32.1039C21.0384 32.1039 20.5906 32.0474 20.1481 31.9344C19.7054 31.8212 19.2781 31.642 18.8664 31.397C19.0734 31.1323 19.2804 30.8202 19.4874 30.4607C19.6944 30.1012 19.8825 29.77 20.0518 29.4673C20.3005 29.601 20.5491 29.6965 20.7976 29.7538C21.0461 29.811 21.2946 29.8397 21.5431 29.8397C22.4296 29.8397 23.1801 29.5242 23.7946 28.8932C24.4091 28.2624 24.7164 27.5124 24.7164 26.6432C24.7164 26.1712 24.6236 25.6618 24.4381 25.115C24.2524 24.5685 24.022 23.8953 23.747 23.0953L24.2866 22.1983C25.4326 21.979 26.5744 21.6732 27.7119 21.2807C28.8494 20.8884 29.4181 19.9538 29.4181 18.4768C29.4181 17.371 29.0206 16.5595 28.2256 16.0423C27.4304 15.525 26.5471 15.2664 25.5759 15.2664C24.5469 15.2664 23.3464 15.4519 21.9744 15.8229C20.6024 16.1942 19.0077 16.6827 17.1905 17.2884L16.5905 15.0845C18.425 14.498 20.0675 14.0019 21.518 13.5962C22.9683 13.1904 24.2998 12.9875 25.5125 12.9875C27.1318 12.9875 28.5625 13.4664 29.8048 14.4242C31.047 15.3819 31.6681 16.7328 31.6681 18.4768C31.6681 19.1363 31.5504 19.7627 31.3149 20.3559C31.0794 20.9494 30.7481 21.4962 30.3211 21.9962C31.3481 22.0732 32.1971 22.5117 32.8681 23.3117C33.5394 24.1117 33.875 25.0154 33.875 26.0229C33.875 27.1577 33.4774 28.1289 32.6821 28.9367C31.8869 29.7442 30.9095 30.1479 29.75 30.1479C29.1287 30.1479 28.5311 30.009 27.9571 29.7313C27.3831 29.4533 26.9201 29.0567 26.5681 28.5414C26.1546 29.6107 25.4989 30.4717 24.6009 31.1244C23.7029 31.7774 22.6664 32.1039 21.4914 32.1039ZM29.7875 27.8983C30.3085 27.8983 30.745 27.716 31.097 27.3515C31.449 26.987 31.625 26.5442 31.625 26.0229C31.625 25.5019 31.4427 25.0529 31.0783 24.6759C30.7138 24.2989 30.271 24.1104 29.75 24.1104C29.2288 24.1104 28.7859 24.2927 28.4214 24.6572C28.0571 25.0217 27.875 25.4644 27.875 25.9854C27.875 26.5067 28.0634 26.9558 28.4401 27.3328C28.8171 27.7098 29.2662 27.8983 29.7875 27.8983Z" fill="#1C1B1F"/>
</svg>
