<svg width="36" height="36" viewBox="0 0 36 36" fill="none" xmlns="http://www.w3.org/2000/svg">
<mask id="mask0_131_371" style="mask-type:alpha" maskUnits="userSpaceOnUse" x="0" y="0" width="36" height="36">
<rect width="36" height="36" fill="#D9D9D9"/>
</mask>
<g mask="url(#mask0_131_371)">
<path d="M20.781 20.5383C20.0483 19.2981 18.9739 18.4592 17.5579 18.0217C16.1419 17.5842 14.6787 17.3655 13.1682 17.3655C11.6624 17.3655 10.1957 17.5842 8.76791 18.0217C7.33991 18.4592 6.26916 19.2981 5.55566 20.5383H20.781ZM2.58191 22.7883C2.58191 20.3326 3.66653 18.4398 5.83578 17.1101C8.00503 15.7803 10.4492 15.1155 13.1682 15.1155C15.8874 15.1155 18.3317 15.7803 20.5009 17.1101C22.6702 18.4398 23.7548 20.3326 23.7548 22.7883H2.58191ZM2.58191 28.2693V26.0193H23.7548V28.2693H2.58191ZM26.7548 33.75V31.5H28.8548L30.9548 10.7883H17.0337L16.7453 8.53833H23.9569V2.53833H26.2065V8.53833H33.4182L31.0587 31.9788C30.9932 32.4981 30.7663 32.9231 30.378 33.2538C29.9895 33.5846 29.5357 33.75 29.0164 33.75H26.7548ZM3.79353 33.75C3.45003 33.75 3.16228 33.6338 2.93028 33.4016C2.69803 33.1693 2.58191 32.8816 2.58191 32.5383V31.5H23.7548V32.5383C23.7548 32.8816 23.6387 33.1693 23.4064 33.4016C23.1742 33.6338 22.8864 33.75 22.5432 33.75H3.79353Z" fill="#1C1B1F"/>
</g>
</svg>
