<svg width="36" height="36" viewBox="0 0 36 36" fill="none" xmlns="http://www.w3.org/2000/svg">
<mask id="mask0_131_411" style="mask-type:alpha" maskUnits="userSpaceOnUse" x="0" y="0" width="36" height="36">
<rect width="36" height="36" fill="#D9D9D9"/>
</mask>
<g mask="url(#mask0_131_411)">
<path d="M10.8461 30.75C10.1004 30.75 9.46202 30.4845 8.93102 29.9535C8.40002 29.4225 8.13452 28.7841 8.13452 28.0384V12C8.13452 11.2543 8.40002 10.6159 8.93102 10.0849C9.46202 9.55387 10.1004 9.28837 10.8461 9.28837H13.9616V6.46163C13.9616 5.71587 14.2271 5.0775 14.7581 4.5465C15.2891 4.0155 15.9275 3.75 16.6733 3.75H19.3268C20.0725 3.75 20.7109 4.0155 21.2419 4.5465C21.7729 5.0775 22.0384 5.71587 22.0384 6.46163V9.28837H25.1539C25.8997 9.28837 26.538 9.55387 27.069 10.0849C27.6 10.6159 27.8655 11.2543 27.8655 12V28.0384C27.8655 28.7841 27.6 29.4225 27.069 29.9535C26.538 30.4845 25.8997 30.75 25.1539 30.75V30.9229C25.1539 31.2904 25.0245 31.6034 24.7658 31.8619C24.5073 32.1206 24.1943 32.25 23.8268 32.25C23.4595 32.25 23.1466 32.1206 22.8881 31.8619C22.6294 31.6034 22.5 31.2904 22.5 30.9229V30.75H13.5V30.9229C13.5 31.2904 13.3706 31.6034 13.1119 31.8619C12.8534 32.1206 12.5405 32.25 12.1733 32.25C11.8058 32.25 11.4928 32.1206 11.2343 31.8619C10.9755 31.6034 10.8461 31.2904 10.8461 30.9229V30.75ZM10.8461 28.5H25.1539C25.2884 28.5 25.399 28.4567 25.4858 28.3703C25.5723 28.2838 25.6155 28.1731 25.6155 28.0384V12C25.6155 11.8652 25.5723 11.7546 25.4858 11.6681C25.399 11.5816 25.2884 11.5384 25.1539 11.5384H10.8461C10.7116 11.5384 10.601 11.5816 10.5143 11.6681C10.4278 11.7546 10.3845 11.8652 10.3845 12V28.0384C10.3845 28.1731 10.4278 28.2838 10.5143 28.3703C10.601 28.4567 10.7116 28.5 10.8461 28.5ZM13.9616 26.4229H16.2116V13.6155H13.9616V26.4229ZM19.7884 26.4229H22.0384V13.6155H19.7884V26.4229ZM16.2116 9.28837H19.7884V6.46163C19.7884 6.32687 19.7451 6.21625 19.6586 6.12975C19.5721 6.04325 19.4615 6 19.3268 6H16.6733C16.5385 6 16.4279 6.04325 16.3414 6.12975C16.2549 6.21625 16.2116 6.32687 16.2116 6.46163V9.28837Z" fill="#1C1B1F"/>
</g>
</svg>
