<svg width="36" height="36" viewBox="0 0 36 36" fill="none" xmlns="http://www.w3.org/2000/svg">
<mask id="mask0_161_294" style="mask-type:alpha" maskUnits="userSpaceOnUse" x="0" y="0" width="36" height="36">
<rect width="36" height="36" fill="#D9D9D9"/>
</mask>
<g mask="url(#mask0_161_294)">
<path d="M16.875 32.625V25.8806L11.625 31.0556L10.0444 29.475L16.875 22.6444V19.125H13.3556L6.525 25.9556L4.94438 24.375L10.1194 19.125H3.375V16.875H10.1194L4.94438 11.625L6.525 10.0444L13.3556 16.875H16.875V13.3556L10.0444 6.525L11.625 4.94437L16.875 10.1194V3.375H19.125V10.1194L24.375 4.94437L25.9556 6.525L19.125 13.3556V16.875H22.6444L29.475 10.0444L31.0556 11.625L25.8806 16.875H32.625V19.125H25.8806L31.0556 24.375L29.475 25.9556L22.6444 19.125H19.125V22.6444L25.9556 29.475L24.375 31.0556L19.125 25.8806V32.625H16.875Z" fill="#1C1B1F"/>
</g>
</svg>
