<svg width="375" height="44" viewBox="0 0 375 44" fill="none" xmlns="http://www.w3.org/2000/svg">
<path d="M35.6201 16.1675C37.876 16.1675 39.8389 17.7715 39.8389 21.5801V21.5947C39.8389 25.1543 38.2349 27.2637 35.5762 27.2637C33.6353 27.2637 32.1851 26.1138 31.8482 24.4951L31.8335 24.4146H33.6939L33.7159 24.4878C33.9942 25.2275 34.646 25.7109 35.5762 25.7109C37.2534 25.7109 37.9639 24.0703 38.0445 22.0488C38.0445 21.9683 38.0518 21.8877 38.0518 21.8071H37.9053C37.5171 22.6421 36.5943 23.3818 35.1441 23.3818C33.1153 23.3818 31.6944 21.9023 31.6944 19.8955V19.8809C31.6944 17.7349 33.3277 16.1675 35.6201 16.1675ZM35.6128 21.9316C36.8067 21.9316 37.7222 21.0674 37.7222 19.8735V19.8589C37.7222 18.6504 36.8067 17.7056 35.6348 17.7056C34.4702 17.7056 33.5401 18.6357 33.5401 19.8149V19.8296C33.5401 21.0527 34.4117 21.9316 35.6128 21.9316ZM42.9271 20.1519C42.2606 20.1519 41.7625 19.6392 41.7625 18.9946C41.7625 18.3428 42.2606 17.8374 42.9271 17.8374C43.6009 17.8374 44.0916 18.3428 44.0916 18.9946C44.0916 19.6392 43.6009 20.1519 42.9271 20.1519ZM42.9271 25.5864C42.2606 25.5864 41.7625 25.0811 41.7625 24.4292C41.7625 23.7773 42.2606 23.272 42.9271 23.272C43.6009 23.272 44.0916 23.7773 44.0916 24.4292C44.0916 25.0811 43.6009 25.5864 42.9271 25.5864ZM51.1422 27V24.9712H45.9713V23.4258C47.341 21.0454 48.8424 18.6138 50.278 16.4312H52.9513V23.4111H54.3722V24.9712H52.9513V27H51.1422ZM47.7292 23.4551H51.1715V17.9399H51.0617C49.9777 19.5952 48.7545 21.5508 47.7292 23.3452V23.4551ZM58.5151 27V18.2915H58.3906L55.7612 20.1519V18.3721L58.5224 16.4312H60.4048V27H58.5151Z" fill="black"/>
<path fill-rule="evenodd" clip-rule="evenodd" d="M308.078 18.2874C308.002 18.4711 308.002 18.7041 308.002 19.17V26.8367C308.002 27.3027 308.002 27.5356 308.078 27.7194C308.18 27.9644 308.374 28.1591 308.62 28.2606C308.803 28.3367 309.036 28.3367 309.502 28.3367C309.968 28.3367 310.201 28.3367 310.385 28.2606C310.63 28.1591 310.825 27.9644 310.926 27.7194C311.002 27.5356 311.002 27.3027 311.002 26.8367V19.17C311.002 18.7041 311.002 18.4711 310.926 18.2874C310.825 18.0423 310.63 17.8477 310.385 17.7462C310.201 17.67 309.968 17.67 309.502 17.67C309.036 17.67 308.803 17.67 308.62 17.7462C308.374 17.8477 308.18 18.0423 308.078 18.2874ZM303.336 21.5034C303.336 21.0374 303.336 20.8045 303.412 20.6207C303.513 20.3757 303.708 20.181 303.953 20.0795C304.137 20.0034 304.37 20.0034 304.836 20.0034C305.301 20.0034 305.534 20.0034 305.718 20.0795C305.963 20.181 306.158 20.3757 306.259 20.6207C306.336 20.8045 306.336 21.0374 306.336 21.5034V26.8367C306.336 27.3027 306.336 27.5356 306.259 27.7194C306.158 27.9644 305.963 28.1591 305.718 28.2606C305.534 28.3367 305.301 28.3367 304.836 28.3367C304.37 28.3367 304.137 28.3367 303.953 28.2606C303.708 28.1591 303.513 27.9644 303.412 27.7194C303.336 27.5356 303.336 27.3027 303.336 26.8367V21.5034ZM298.745 22.954C298.669 23.1378 298.669 23.3708 298.669 23.8367V26.8367C298.669 27.3027 298.669 27.5356 298.745 27.7194C298.846 27.9644 299.041 28.1591 299.286 28.2606C299.47 28.3367 299.703 28.3367 300.169 28.3367C300.635 28.3367 300.868 28.3367 301.052 28.2606C301.297 28.1591 301.491 27.9644 301.593 27.7194C301.669 27.5356 301.669 27.3027 301.669 26.8367V23.8367C301.669 23.3708 301.669 23.1378 301.593 22.954C301.491 22.709 301.297 22.5143 301.052 22.4128C300.868 22.3367 300.635 22.3367 300.169 22.3367C299.703 22.3367 299.47 22.3367 299.286 22.4128C299.041 22.5143 298.846 22.709 298.745 22.954ZM294.078 24.954C294.002 25.1378 294.002 25.3708 294.002 25.8367V26.8367C294.002 27.3027 294.002 27.5356 294.078 27.7194C294.18 27.9644 294.374 28.1591 294.62 28.2606C294.803 28.3367 295.036 28.3367 295.502 28.3367C295.968 28.3367 296.201 28.3367 296.385 28.2606C296.63 28.1591 296.825 27.9644 296.926 27.7194C297.002 27.5356 297.002 27.3027 297.002 26.8367V25.8367C297.002 25.3708 297.002 25.1378 296.926 24.954C296.825 24.709 296.63 24.5143 296.385 24.4128C296.201 24.3367 295.968 24.3367 295.502 24.3367C295.036 24.3367 294.803 24.3367 294.62 24.4128C294.374 24.5143 294.18 24.709 294.078 24.954Z" fill="black"/>
<path fill-rule="evenodd" clip-rule="evenodd" d="M325.849 26.2153C325.91 26.1546 325.943 26.0709 325.941 25.9839C325.94 25.8973 325.903 25.8149 325.84 25.7569C324.587 24.6746 322.752 24.6746 321.499 25.7569C321.436 25.8149 321.399 25.8973 321.398 25.9839C321.396 26.0706 321.429 26.1543 321.49 26.2153L323.452 28.2373C323.509 28.2966 323.588 28.3299 323.669 28.3299C323.751 28.3299 323.829 28.2966 323.887 28.2373L325.849 26.2153ZM323.669 23.4222C324.865 23.4219 326.018 23.8759 326.904 24.6959C327.024 24.8122 327.213 24.8096 327.33 24.6902L328.464 23.5199C328.524 23.4582 328.557 23.3752 328.556 23.2886C328.555 23.2019 328.52 23.1196 328.459 23.0592C325.76 20.4949 321.58 20.4949 318.881 23.0592C318.82 23.1196 318.785 23.2022 318.785 23.2886C318.784 23.3752 318.817 23.4586 318.877 23.5199L320.01 24.6902C320.127 24.8096 320.316 24.8122 320.436 24.6959C321.322 23.8766 322.474 23.4226 323.669 23.4222ZM323.669 19.6145C325.845 19.6145 327.939 20.4689 329.516 22.0002C329.634 22.1185 329.825 22.1172 329.941 21.9969L331.077 20.8265C331.136 20.7659 331.169 20.6832 331.169 20.5975C331.168 20.5115 331.134 20.4295 331.074 20.3692C326.934 16.3169 320.403 16.3169 316.263 20.3692C316.203 20.4292 316.169 20.5115 316.169 20.5972C316.168 20.6832 316.201 20.7659 316.26 20.8265L317.396 21.9969C317.513 22.1172 317.703 22.1189 317.822 22.0002C319.399 20.4685 321.493 19.6145 323.669 19.6145Z" fill="black"/>
<path opacity="0.5" d="M359.335 20.9966V24.9966C360.14 24.6578 360.663 23.8697 360.663 22.9966C360.663 22.1234 360.14 21.3354 359.335 20.9966Z" fill="black"/>
<rect opacity="0.4" x="336.835" y="17.83" width="21" height="10.3333" rx="2.5" stroke="black"/>
<rect x="338.335" y="19.33" width="18" height="7.33333" rx="1.33333" fill="black"/>
</svg>
